<svg width="1320" height="443" viewBox="0 0 1320 443" fill="none" xmlns="http://www.w3.org/2000/svg">
<mask id="mask0_829_24938" style="mask-type:alpha" maskUnits="userSpaceOnUse" x="0" y="0" width="1320" height="443">
<path d="M0 0.487244H1320V442.744L0 371.667V0.487244Z" fill="#1D1D1D"/>
</mask>
<g mask="url(#mask0_829_24938)">
<path d="M0 1.61548H1320V443.872L0 372.795V1.61548Z" fill="#1D1D1D"/>
<line x1="-69.9487" y1="58.3589" x2="919.487" y2="58.3589" stroke="white" stroke-opacity="0.04" stroke-width="1.12821"/>
<line x1="-69.9487" y1="118.284" x2="919.487" y2="118.284" stroke="white" stroke-opacity="0.04" stroke-width="1.12821"/>
<line x1="-69.9487" y1="178.208" x2="919.487" y2="178.208" stroke="white" stroke-opacity="0.04" stroke-width="1.12821"/>
<line x1="-69.9487" y1="238.133" x2="919.487" y2="238.133" stroke="white" stroke-opacity="0.04" stroke-width="1.12821"/>
<line x1="-69.9487" y1="298.057" x2="919.487" y2="298.057" stroke="white" stroke-opacity="0.04" stroke-width="1.12821"/>
<line x1="-69.9487" y1="357.981" x2="919.487" y2="357.981" stroke="white" stroke-opacity="0.04" stroke-width="1.12821"/>
<line x1="-69.9487" y1="417.906" x2="919.487" y2="417.906" stroke="white" stroke-opacity="0.04" stroke-width="1.12821"/>
<line x1="13.0684" y1="2.74371" x2="13.0684" y2="478.394" stroke="white" stroke-opacity="0.04" stroke-width="1.12821"/>
<line x1="95.5214" y1="2.74371" x2="95.5214" y2="478.394" stroke="white" stroke-opacity="0.04" stroke-width="1.12821"/>
<line x1="177.975" y1="2.74371" x2="177.974" y2="478.394" stroke="white" stroke-opacity="0.04" stroke-width="1.12821"/>
<line x1="260.427" y1="2.74371" x2="260.427" y2="478.394" stroke="white" stroke-opacity="0.04" stroke-width="1.12821"/>
<line x1="342.88" y1="2.74371" x2="342.88" y2="478.394" stroke="white" stroke-opacity="0.04" stroke-width="1.12821"/>
<line x1="425.333" y1="2.74371" x2="425.333" y2="478.394" stroke="white" stroke-opacity="0.04" stroke-width="1.12821"/>
<line x1="507.786" y1="2.74371" x2="507.786" y2="478.394" stroke="white" stroke-opacity="0.04" stroke-width="1.12821"/>
<line x1="590.239" y1="2.74371" x2="590.239" y2="478.394" stroke="white" stroke-opacity="0.04" stroke-width="1.12821"/>
<line x1="672.693" y1="2.74371" x2="672.693" y2="478.394" stroke="white" stroke-opacity="0.04" stroke-width="1.12821"/>
<line x1="755.146" y1="2.74371" x2="755.146" y2="478.394" stroke="white" stroke-opacity="0.04" stroke-width="1.12821"/>
<line x1="837.598" y1="2.74371" x2="837.598" y2="478.394" stroke="white" stroke-opacity="0.04" stroke-width="1.12821"/>
</g>
</svg>
