<svg width="21" height="21" viewBox="0 0 21 21" fill="none" xmlns="http://www.w3.org/2000/svg">
<g clip-path="url(#clip0_829_91756)">
<path d="M3.63673 12.4214H11.4232L10.0617 19.2731C9.99892 19.5868 10.1746 19.9005 10.4695 20.0197C10.5511 20.0574 10.6389 20.0699 10.7205 20.0699C10.9401 20.0699 11.1597 19.957 11.2852 19.7625L18.369 8.66933C18.5007 8.4623 18.507 8.20503 18.3878 7.99172C18.2748 7.77209 18.049 7.64036 17.8043 7.64036H10.0178L11.3793 0.788697C11.4421 0.474981 11.2664 0.161258 10.9715 0.0420423C10.6703 -0.0771355 10.3315 0.0295197 10.1558 0.299313L3.07202 11.3924C2.94024 11.5995 2.934 11.8567 3.05322 12.0701C3.16615 12.2897 3.39202 12.4214 3.63673 12.4214Z" fill="#004BFF"/>
</g>
<defs>
<clipPath id="clip0_829_91756">
<rect width="20.0763" height="20.0763" fill="white" transform="translate(0.682129 -0.00732422)"/>
</clipPath>
</defs>
</svg>
