<svg width="17" height="18" viewBox="0 0 17 18" fill="none" xmlns="http://www.w3.org/2000/svg">
<g clip-path="url(#clip0_829_91676)">
<path d="M2.50158 11.3438H9.09496L7.94206 17.1456C7.8889 17.4112 8.03769 17.6769 8.28738 17.7778C8.35645 17.8097 8.43084 17.8203 8.49991 17.8203C8.68585 17.8203 8.87183 17.7247 8.97809 17.56L14.9764 8.16662C15.088 7.99132 15.0933 7.77347 14.9923 7.59285C14.8967 7.40687 14.7055 7.29532 14.4982 7.29532H7.90487L9.05778 1.49353C9.11092 1.22789 8.96215 0.962236 8.71245 0.861288C8.45741 0.760371 8.17052 0.850684 8.02174 1.07914L2.02341 10.4725C1.91182 10.6478 1.90654 10.8656 2.00748 11.0463C2.10311 11.2322 2.29437 11.3438 2.50158 11.3438Z" fill="white"/>
</g>
<defs>
<clipPath id="clip0_829_91676">
<rect width="17" height="17" fill="white" transform="translate(0 0.819336)"/>
</clipPath>
</defs>
</svg>
